<svg xmlns="http://www.w3.org/2000/svg" width="24" height="24" id="bin"><path d="M9 3H7c0-1.7 1.3-3 3-3v2c-.6 0-1 .4-1 1zm8 0h-2c0-.6-.4-1-1-1V0c1.7 0 3 1.3 3 3zm0 3H7V3h2v1h6V3h2zm-7-6h4v2h-4z"></path><path d="M21 6H3c-.6 0-1-.4-1-1s.4-1 1-1h18c.6 0 1 .4 1 1s-.4 1-1 1zm-2 18H5c-.6 0-1-.4-1-1V9c0-.6.4-1 1-1h14c.6 0 1 .4 1 1v14c0 .6-.4 1-1 1zM6 22h12V10H6v12z"></path><path d="M10 20c-.6 0-1-.4-1-1v-6c0-.6.4-1 1-1s1 .4 1 1v6c0 .6-.4 1-1 1zm4 0c-.6 0-1-.4-1-1v-6c0-.6.4-1 1-1s1 .4 1 1v6c0 .6-.4 1-1 1z"></path></svg>